<svg xmlns="http://www.w3.org/2000/svg" viewBox="0 0 198 298.1">
  <defs>
    <style>
      .st0, .st1 { fill: #000000; fill-rule: evenodd; }
      @media (prefers-color-scheme: dark) {
        .st0, .st1 { fill: #ffffff; }
      }
    </style>
  </defs>
  <g>
    <path class="st0" d="M34.27,131.16c6.26,0,12.52.19,18.77-.08,3.35-.14,4.04.7,3.45,4.03-3.77,21.28-5.71,42.72-6.56,64.34-1.07,27.26,22.29,48.23,49.48,47.07,21.77-.92,39.33-14.39,44.49-33.85.95-3.58,1.31-7.22,1.3-10.92-.03-22.39-2.57-44.54-6.41-66.55-.54-3.08-.31-4.21,3.31-4.14,13,.25,26.01.15,39.01.05,2.25-.02,3.21.61,3.59,2.89,3.48,20.82,5.75,41.75,6.64,62.87,1.96,46.57-30.92,80.88-70.03,89.58-39.32,8.75-73.18-1.57-99.37-32.96-12.45-14.92-18.13-32.66-18.02-52.12.12-22.62,2.89-45,6.6-67.29.36-2.17,1.13-3.05,3.51-2.99,6.74.18,13.49.06,20.24.06Z"/>
    <path class="st0" d="M159.47,122.6c-6.63,0-13.25-.07-19.87.04-2.16.04-3.14-.4-3.63-2.81-2.27-11.04-4.89-22.01-7.27-33.03-1.04-4.84.06-6.54,5.01-6.64,11.28-.23,22.57-.1,33.85-.08,3.76,0,5.81,2.21,6.72,5.65,3.03,11.5,5.51,23.12,7.87,34.77.45,2.23-.61,2.1-2.07,2.09-6.87-.03-13.74-.01-20.61,0Z"/>
    <path class="st0" d="M35.58,122.6c-6.75,0-13.5-.09-20.24.05-2.24.05-2.58-.57-2.15-2.67,2.28-11.17,4.61-22.32,7.55-33.34,1.43-5.38,2.97-6.57,8.59-6.62,10.18-.09,20.36-.12,30.54,0,6.69.08,7.85,1.59,6.44,8.06-2.35,10.77-4.88,21.51-7.17,32.29-.41,1.94-1.25,2.26-2.96,2.25-6.87-.07-13.74-.03-20.61-.03Z"/>
  </g>
</svg>
