<?xml version="1.0" encoding="UTF-8"?>
<svg xmlns="http://www.w3.org/2000/svg" viewBox="0 0 256 256">
  <rect width="256" height="256" rx="48" fill="#6d28d9"/>
  <g transform="translate(29, -14) scale(0.75)">
    <defs>
      <style>
        .st0 {
          fill: #fff;
          fill-rule: evenodd;
        }
      </style>
    </defs>
    <path class="st0" d="M156.51,58.21c-.31-.02-.63-.05-.94-.07.17-.14.35-.29.52-.43.16.15.3.32.42.5Z"/>
    <g>
      <path class="st0" d="M37.4,36.56c-1.24-4.35-2.48-8.7-3.74-13.12q4.8-.22,3.57-4.55c-.88-3.1-1.73-6.21-2.61-9.37q6.94-.21,8.63,6.03c1.02,3.77,1.94,7.57,3.13,11.29.86,2.67,1.07,4.4-2.62,3.22-.32-.1-.72.05-1.43.13,1.38,4.7,2.72,9.25,4.02,13.65-.74.82-1.41.54-2,.4-2.26-.56-3-.08-2.41,2.47,1.44,6.17,2.58,12.42,2.99,18.91-4.01-9.35-8.01-18.7-12-28.02,1.34-.94,2.49,0,3.62-.23.34-.03.68-.05,1.03-.07-.05-.25-.11-.49-.16-.74Z"/>
      <path class="st0" d="M53.74,68.14c.5-7.25.98-14.5,1.53-21.74.08-1.04-.29-3.15,2.01-1.48,1.67,1.21,1.58-.34,1.76-1.25.58-2.79,1.1-5.59,1.72-8.74,2.95,2.2,3.73.79,4.03-1.94.25-2.28.88-4.51,1.35-6.83,3.54,1.21,5.12,3.02,3.77,6.77-.92,2.55-1.22,5.32-1.73,8-.44,2.3-.64,4.93-3.82,1.17-.57,2.75-.84,4.96-1.52,7.03-.46,1.4,1,5.4-3.32,2.85-1-.59-1.16,1.39-1.42,2.27-1.39,4.68-2.69,9.4-4.01,14.1-.12-.07-.24-.15-.36-.22Z"/>
      <path class="st0" d="M37.68,67.46c-5.56-4.08-10.16-9.23-15.34-13.72-.56-.49-1.41-1.35-.14-1.68,3.64-.97.98-2.3.21-3.3-1.51-1.95-3.2-3.75-4.81-5.6.53-1.38,2.18-.85,2.85-2.11-1.52-1.81-3.18-3.63-4.63-5.61-.59-.81-2.54-1.76-1.28-2.67,1.23-.88,3.38-2.3,4.92-.64,3.01,3.23,5.82,6.67,8.45,10.21,1.8,2.43-2.38.98-1.49,3.67,1.15,1.33,3.04,3.45,4.86,5.65.45.54,1.85,1.5.15,1.97-3.19.87-1.32,2.23-.52,3.5,2.2,3.47,5.27,6.37,6.85,10.26l-.06.07Z"/>
      <g>
        <path class="st0" d="M156.84,8.49c-1.54,5.54-2.79,10.02-4.05,14.58,1.54,1.03,3.12-.48,4.78.31-1.35,4.62-2.69,9.17-4.02,13.72,1.62.97,3-.46,4.75.37-3.96,9.25-7.93,18.52-11.89,27.79-.34-.11-.68-.22-1.02-.34.97-4.66,1.94-9.33,2.92-13.99.19-.89.4-1.78.59-2.67q.89-4.33-4.16-3.88c.97-3.34,1.87-6.52,2.8-9.68q1.38-4.66-3.61-4.47c1.74-6.35,3.24-12.65,5.22-18.79,1.08-3.35,4.62-1.15,7.7-2.95Z"/>
        <path class="st0" d="M153.69,66.62c2.14-3.09,4.27-6.2,6.41-9.28q1.81-2.61-1.31-4.36c1.62-1.9,3.1-3.86,4.81-5.58,1.92-1.93,2.32-3.28-1.37-3.85,3.14-3.84,6.02-7.33,8.87-10.86,2.08-2.58,3.89-.07,6.61-.02-1.91,2.28-3.41,4.01-4.85,5.79-1.33,1.64-4.12,3.53,1.13,4.17-2.02,2.34-3.61,4.22-5.23,6.07-1.41,1.6-3.54,3.31,1.84,3.44-5.99,5.46-11.23,10.25-16.47,15.02-.13-.2-.28-.38-.45-.54Z"/>
        <path class="st0" d="M132.43,45.34c1.41.09,1.94-1.33,3.23-.93.55,6.68,1.46,13.38.65,21.25-1.2-4.25-2.28-7.46-2.98-10.75-.59-2.79-1.53-3.99-4.27-1.58-.74-3.74-1.42-7.15-2.16-10.89-2.78,2.36-3.69,1.26-3.99-1.73-.24-2.44-.75-4.9-1.52-7.23-1.16-3.51-.65-6.05,3.38-7.28,1.08,2.15,1.02,4.68,1.71,6.99.4,1.32-.28,4.3,3.01,2.22,1.19-.75,1.21.92,1.37,1.65.59,2.77,1.07,5.57,1.57,8.26Z"/>
      </g>
      <path class="st0" d="M41.35,58.43c.18.08.37.15.55.23-.1.13-.2.25-.3.38-.1-.18-.21-.36-.31-.54l.06-.07Z"/>
      <path class="st0" d="M41.02,38.44c.05.23.1.47.15.7-.32.02-.64.05-.96.07.27-.25.54-.51.81-.77Z"/>
      <path class="st0" d="M34.27,131.16c6.26,0,12.52.19,18.77-.08,3.35-.14,4.04.7,3.45,4.03-3.77,21.28-5.71,42.72-6.56,64.34-1.07,27.26,22.29,48.23,49.48,47.07,21.77-.92,39.33-14.39,44.49-33.85.95-3.58,1.31-7.22,1.3-10.92-.03-22.39-2.57-44.54-6.41-66.55-.54-3.08-.31-4.21,3.31-4.14,13,.25,26.01.15,39.01.05,2.25-.02,3.21.61,3.59,2.89,3.48,20.82,5.75,41.75,6.64,62.87,1.96,46.57-30.92,80.88-70.03,89.58-39.32,8.75-73.18-1.57-99.37-32.96-12.45-14.92-18.13-32.66-18.02-52.12.12-22.62,2.89-45,6.6-67.29.36-2.17,1.13-3.05,3.51-2.99,6.74.18,13.49.06,20.24.06Z"/>
      <path class="st0" d="M159.47,122.6c-6.63,0-13.25-.07-19.87.04-2.16.04-3.14-.4-3.63-2.81-2.27-11.04-4.89-22.01-7.27-33.03-1.04-4.84.06-6.54,5.01-6.64,11.28-.23,22.57-.1,33.85-.08,3.76,0,5.81,2.21,6.72,5.65,3.03,11.5,5.51,23.12,7.87,34.77.45,2.23-.61,2.1-2.07,2.09-6.87-.03-13.74-.01-20.61,0Z"/>
      <path class="st0" d="M35.58,122.6c-6.75,0-13.5-.09-20.24.05-2.24.05-2.58-.57-2.15-2.67,2.28-11.17,4.61-22.32,7.55-33.34,1.43-5.38,2.97-6.57,8.59-6.62,10.18-.09,20.36-.12,30.54,0,6.69.08,7.85,1.59,6.44,8.06-2.35,10.77-4.88,21.51-7.17,32.29-.41,1.94-1.25,2.26-2.96,2.25-6.87-.07-13.74-.03-20.61-.03Z"/>
    </g>
  </g>
</svg>
