<?xml version="1.0" encoding="UTF-8"?>
<svg id="Calque_1" xmlns="http://www.w3.org/2000/svg" version="1.1" viewBox="0 0 1200 420.2">
  <!-- Generator: Adobe Illustrator 30.1.0, SVG Export Plug-In . SVG Version: 2.1.1 Build 136)  -->
  <defs>
    <style>
      .st0 {
        fill-rule: evenodd;
      }
    </style>
  </defs>
  <path class="st0" d="M337.76,77.42c-.31-.02-.63-.05-.94-.07.17-.14.35-.29.52-.43.16.15.3.32.42.5Z"/>
  <g>
    <path class="st0" d="M219.18,59.02c-1.23-4.31-2.46-8.63-3.71-13q4.76-.22,3.53-4.51c-.87-3.08-1.72-6.16-2.59-9.29q6.88-.2,8.55,5.98c1.01,3.74,1.93,7.5,3.11,11.19.85,2.65,1.06,4.36-2.59,3.19-.32-.1-.71.05-1.41.13,1.37,4.66,2.7,9.17,3.98,13.53-.73.81-1.4.54-1.98.39-2.24-.55-2.98-.08-2.39,2.45,1.42,6.12,2.55,12.31,2.96,18.74-3.97-9.27-7.94-18.53-11.9-27.77,1.33-.94,2.47,0,3.59-.22.34-.03.68-.05,1.02-.07-.05-.24-.11-.49-.16-.73Z"/>
    <path class="st0" d="M235.38,90.33c.5-7.18.97-14.37,1.52-21.55.08-1.03-.28-3.12,1.99-1.47,1.66,1.2,1.56-.34,1.75-1.24.57-2.76,1.09-5.54,1.71-8.66,2.92,2.19,3.7.78,4-1.92.25-2.26.87-4.47,1.34-6.77,3.51,1.2,5.07,2.99,3.74,6.71-.91,2.52-1.2,5.27-1.71,7.93-.44,2.28-.63,4.89-3.79,1.16-.56,2.73-.83,4.92-1.51,6.97-.46,1.39.99,5.35-3.29,2.82-.99-.58-1.15,1.38-1.4,2.25-1.38,4.64-2.66,9.31-3.98,13.97-.12-.07-.24-.14-.36-.21Z"/>
    <path class="st0" d="M219.46,89.66c-5.51-4.04-10.07-9.15-15.21-13.6-.56-.48-1.4-1.33-.14-1.67,3.61-.96.97-2.28.21-3.27-1.49-1.93-3.18-3.71-4.77-5.55.53-1.37,2.16-.85,2.83-2.1-1.5-1.79-3.15-3.6-4.59-5.56-.59-.8-2.52-1.74-1.27-2.64,1.21-.88,3.35-2.28,4.88-.64,2.98,3.2,5.77,6.61,8.38,10.12,1.78,2.4-2.36.97-1.48,3.63,1.14,1.31,3.02,3.42,4.81,5.6.44.54,1.84,1.49.14,1.95-3.16.86-1.3,2.21-.51,3.47,2.18,3.44,5.23,6.31,6.79,10.17l-.06.07Z"/>
    <g>
      <path class="st0" d="M337.56,31.21c-1.53,5.49-2.76,9.93-4.02,14.45,1.53,1.02,3.09-.48,4.74.3-1.34,4.58-2.67,9.09-3.99,13.6,1.6.96,2.98-.46,4.71.37-3.93,9.17-7.86,18.36-11.79,27.55-.34-.11-.67-.22-1.01-.33.96-4.62,1.93-9.24,2.89-13.87.18-.88.4-1.76.58-2.65q.88-4.29-4.13-3.84c.96-3.31,1.85-6.46,2.78-9.59q1.37-4.62-3.57-4.43c1.72-6.3,3.21-12.54,5.17-18.62,1.07-3.32,4.58-1.14,7.63-2.93Z"/>
      <path class="st0" d="M334.44,88.82c2.12-3.07,4.23-6.14,6.36-9.2q1.8-2.59-1.3-4.32c1.6-1.88,3.07-3.82,4.77-5.53,1.9-1.91,2.3-3.25-1.36-3.81,3.11-3.8,5.97-7.27,8.79-10.76,2.06-2.56,3.86-.07,6.55-.02-1.9,2.26-3.38,3.97-4.81,5.74-1.31,1.63-4.08,3.49,1.12,4.13-2,2.32-3.57,4.18-5.19,6.01-1.4,1.59-3.51,3.28,1.83,3.41-5.94,5.42-11.13,10.15-16.32,14.89-.13-.2-.27-.37-.44-.53Z"/>
      <path class="st0" d="M313.37,67.72c1.39.09,1.93-1.32,3.2-.92.54,6.62,1.44,13.26.65,21.06-1.19-4.21-2.26-7.39-2.95-10.65-.59-2.76-1.52-3.95-4.23-1.56-.74-3.71-1.41-7.09-2.14-10.79-2.75,2.34-3.66,1.25-3.95-1.71-.24-2.42-.74-4.86-1.51-7.17-1.15-3.47-.65-6,3.35-7.21,1.07,2.13,1.01,4.63,1.69,6.93.39,1.31-.27,4.26,2.98,2.2,1.18-.75,1.2.91,1.36,1.64.58,2.75,1.06,5.52,1.56,8.18Z"/>
    </g>
    <path class="st0" d="M223.1,80.7c.18.08.36.15.54.23-.1.13-.2.25-.3.38-.1-.18-.21-.36-.31-.54l.06-.07Z"/>
    <path class="st0" d="M222.78,60.88c.05.23.1.46.15.69-.32.02-.64.05-.96.07.27-.25.54-.51.81-.76Z"/>
    <path class="st0" d="M216.08,152.78c6.2,0,12.41.19,18.6-.08,3.32-.14,4,.69,3.41,4-3.74,21.09-5.66,42.34-6.5,63.77-1.06,27.02,22.1,47.8,49.05,46.65,21.57-.92,38.99-14.26,44.09-33.55.94-3.55,1.3-7.15,1.29-10.82-.03-22.19-2.55-44.14-6.35-65.96-.53-3.06-.31-4.17,3.28-4.1,12.88.24,25.77.15,38.66.05,2.23-.02,3.18.6,3.56,2.86,3.45,20.64,5.7,41.38,6.58,62.31,1.94,46.15-30.64,80.16-69.4,88.79-38.97,8.67-72.53-1.55-98.49-32.67-12.34-14.79-17.97-32.37-17.86-51.65.12-22.42,2.86-44.6,6.54-66.69.36-2.15,1.12-3.03,3.48-2.96,6.68.18,13.37.06,20.06.06Z"/>
    <path class="st0" d="M340.17,144.31c-6.57,0-13.13-.07-19.7.04-2.14.04-3.11-.4-3.6-2.78-2.25-10.94-4.85-21.81-7.2-32.73-1.03-4.79.06-6.48,4.97-6.58,11.18-.23,22.37-.1,33.55-.08,3.72,0,5.76,2.19,6.66,5.6,3,11.4,5.46,22.91,7.8,34.46.45,2.21-.6,2.08-2.06,2.07-6.81-.03-13.62-.01-20.43,0Z"/>
    <path class="st0" d="M217.38,144.31c-6.69,0-13.38-.09-20.06.05-2.22.05-2.56-.56-2.13-2.65,2.26-11.07,4.57-22.12,7.48-33.04,1.42-5.34,2.94-6.51,8.52-6.56,10.09-.09,20.18-.11,30.27,0,6.63.08,7.78,1.57,6.38,7.99-2.33,10.68-4.84,21.31-7.11,32.01-.41,1.92-1.24,2.24-2.93,2.23-6.81-.07-13.62-.03-20.43-.03Z"/>
  </g>
  <g>
    <path d="M556.77,255.89c0,7.33-1.39,14.27-4.16,20.81-2.78,6.54-6.54,12.34-11.3,17.39-4.76,5.05-10.36,9.07-16.8,12.04-6.44,2.97-13.23,4.46-20.36,4.46h-97.81V99.52h93.35c7.33,0,13.97,1.59,19.92,4.76,5.95,3.17,11,7.28,15.16,12.34,4.16,5.05,7.38,10.8,9.66,17.24,2.28,6.44,3.42,12.93,3.42,19.47,0,10.7-2.73,20.51-8.18,29.43-5.45,8.92-12.83,15.46-22.15,19.62,5.95,1.78,11.34,4.46,16.2,8.03,4.85,3.57,9.02,7.73,12.49,12.49,3.47,4.76,6.09,9.96,7.88,15.61,1.78,5.65,2.68,11.45,2.68,17.39ZM412.28,105.46v95.73h85.62c6.54,0,12.49-1.38,17.84-4.16,5.35-2.77,9.96-6.44,13.82-11,3.86-4.56,6.88-9.66,9.07-15.31,2.18-5.65,3.27-11.45,3.27-17.39,0-6.34-1.04-12.38-3.12-18.13-2.08-5.75-4.96-10.85-8.62-15.31-3.67-4.46-8.13-7.98-13.38-10.55-5.25-2.57-10.95-3.87-17.09-3.87h-87.4ZM550.82,255.89c0-6.34-1.14-12.44-3.42-18.28-2.28-5.84-5.4-11.05-9.36-15.61-3.97-4.56-8.67-8.18-14.12-10.85-5.45-2.68-11.35-4.01-17.69-4.01h-93.94v97.51h91.86c6.54,0,12.63-1.38,18.28-4.16,5.65-2.77,10.6-6.44,14.86-11,4.26-4.56,7.58-9.76,9.96-15.61,2.38-5.84,3.57-11.84,3.57-17.99Z"/>
    <path d="M602.55,310.6V99.52h5.95v205.13h132.59v5.95h-138.54Z"/>
    <path d="M759.81,99.52l81.46,122.48,81.76-122.48h6.84l-85.62,129.32v81.76h-5.95v-82.35l-85.32-128.73h6.84Z"/>
    <path d="M1162.64,310.6V112.6l-93.65,156.38h-4.76l-93.65-156.38v198h-5.95V99.52h4.76l97.21,162.32,97.21-162.32h4.76v211.08h-5.95Z"/>
  </g>
  <path d="M147.58,130.08c-8.12-8.89-16.57-14.98-25.37-18.26-8.8-3.28-19.28-4.93-31.45-4.93s-21.89,1.16-30.29,3.48-15.32,5.65-20.73,10c-5.41,4.35-9.38,9.52-11.89,15.51-2.51,5.99-3.77,12.76-3.77,20.29s1.25,13.48,3.77,18.41c2.51,4.93,6.38,9.09,11.6,12.47,5.22,3.38,11.93,6.28,20.15,8.7,8.21,2.42,18.02,4.78,29.42,7.1,11.4,2.32,21.74,4.83,31.02,7.54,9.28,2.71,17.15,6.09,23.63,10.15,6.47,4.06,11.45,9.09,14.93,15.07,3.48,5.99,5.22,13.53,5.22,22.61,0,16.81-6.43,29.67-19.28,38.56-12.85,8.89-30.58,13.34-53.2,13.34-16.62,0-31.36-2.56-44.21-7.68-12.85-5.12-24.79-13.19-35.8-24.21l4.35-3.77c10.44,10.83,21.79,18.65,34.06,23.48,12.27,4.83,26.24,7.25,41.89,7.25,20.48,0,36.67-3.81,48.56-11.45,11.89-7.63,17.83-19.18,17.83-34.64,0-7.73-1.35-14.25-4.06-19.57-2.71-5.31-6.86-9.9-12.47-13.77-5.61-3.86-12.76-7.15-21.45-9.86-8.7-2.7-18.94-5.22-30.73-7.54-11.41-2.12-21.5-4.39-30.29-6.81-8.8-2.41-16.23-5.51-22.32-9.28s-10.68-8.5-13.77-14.21c-3.09-5.7-4.64-12.8-4.64-21.31s1.69-16.76,5.07-23.63c3.38-6.86,8.21-12.66,14.49-17.39,6.28-4.73,13.82-8.31,22.61-10.73,8.79-2.41,18.7-3.62,29.71-3.62,13.14,0,24.59,1.88,34.35,5.65,9.76,3.77,18.7,10.1,26.82,18.99l-3.77,4.06Z"/>
</svg>